<?xml version="1.0" encoding="UTF-8" standalone="no"?>
<!-- Created with Inkscape (http://www.inkscape.org/) -->

<svg
   xmlns:dc="http://purl.org/dc/elements/1.1/"
   xmlns:cc="http://creativecommons.org/ns#"
   xmlns:rdf="http://www.w3.org/1999/02/22-rdf-syntax-ns#"
   xmlns:svg="http://www.w3.org/2000/svg"
   xmlns="http://www.w3.org/2000/svg"
   xmlns:sodipodi="http://sodipodi.sourceforge.net/DTD/sodipodi-0.dtd"
   xmlns:inkscape="http://www.inkscape.org/namespaces/inkscape"
   width="210mm"
   height="297mm"
   id="svg2"
   version="1.1"
   inkscape:version="0.48.5 r10040"
   inkscape:export-filename="c:\tmp\artbits.png"
   inkscape:export-xdpi="90"
   inkscape:export-ydpi="90"
   sodipodi:docname="artbits.svg">
  <defs
     id="defs4" />
  <sodipodi:namedview
     id="base"
     pagecolor="#ffffff"
     bordercolor="#666666"
     borderopacity="1.0"
     inkscape:pageopacity="0.0"
     inkscape:pageshadow="2"
     inkscape:zoom="1.1826455"
     inkscape:cx="405.41267"
     inkscape:cy="669.95989"
     inkscape:document-units="px"
     inkscape:current-layer="layer1"
     showgrid="false"
     inkscape:window-width="1920"
     inkscape:window-height="1138"
     inkscape:window-x="-8"
     inkscape:window-y="-8"
     inkscape:window-maximized="1" />
  <metadata
     id="metadata7">
    <rdf:RDF>
      <cc:Work
         rdf:about="">
        <dc:format>image/svg+xml</dc:format>
        <dc:type
           rdf:resource="http://purl.org/dc/dcmitype/StillImage" />
        <dc:title></dc:title>
      </cc:Work>
    </rdf:RDF>
  </metadata>
  <g
     inkscape:label="Ebene 1"
     inkscape:groupmode="layer"
     id="layer1">
    <rect
       style="fill:#501616;fill-rule:evenodd;stroke:#000000;stroke-width:0;stroke-linecap:butt;stroke-linejoin:miter;stroke-opacity:1;stroke-miterlimit:4;stroke-dasharray:none"
       id="rect2990"
       width="52.182652"
       height="52.182652"
       x="269.30624"
       y="-236.80994"
       ry="0.86971074"
       transform="matrix(0.70710678,0.70710678,-0.70710678,0.70710678,0,0)" />
    <path
       style="fill:#501616;fill-rule:evenodd;stroke:#000000;stroke-width:0;stroke-linecap:butt;stroke-linejoin:miter;stroke-opacity:1;stroke-miterlimit:4;stroke-dasharray:none"
       d="m 312.04949,65.834084 -18.34381,18.3438 c -0.60261,0.60262 -0.60261,1.5709 0,2.17351 l 63.07803,63.093436 c 0.60261,0.60262 1.58631,0.60262 2.18892,0 l 63.07803,-63.093436 c 0.60261,-0.60261 0.60261,-1.57089 0,-2.17351 l -18.34381,-18.3438 -44.73422,44.749626 c -0.60261,0.60262 -1.58631,0.60262 -2.18892,0 L 312.04949,65.834084 z"
       id="rect2994"
       inkscape:connector-curvature="0" />
    <path
       style="fill:#552200;fill-rule:evenodd;stroke:#000000;stroke-width:0;stroke-linecap:butt;stroke-linejoin:miter;stroke-miterlimit:4;stroke-opacity:1;stroke-dasharray:none;fill-opacity:1"
       d="m 357.875,251.90625 c -0.4005,0 -0.78687,0.23527 -1.09375,0.68131 L 292.5,345.97313 c -0.39173,0.56937 -0.51455,1.3596 -0.40625,2.08937 l 131.59375,0 c 0.1076,-0.72908 -0.0462,-1.52067 -0.4375,-2.08937 L 359,252.58756 c -0.30688,-0.44604 -0.7245,-0.68131 -1.125,-0.68131 z"
       id="rect3767"
       inkscape:connector-curvature="0" />
    <path
       inkscape:connector-curvature="0"
       id="path3772"
       d="m 357.88285,399.49108 c -0.16845,0 -0.33095,-0.099 -0.46002,-0.28655 l -27.03579,-39.27666 c -0.16475,-0.23947 -0.21641,-0.57183 -0.17086,-0.87876 l 55.34648,0 c 0.0453,0.30664 -0.0194,0.63958 -0.18401,0.87876 l -27.02264,39.27666 c -0.12907,0.1876 -0.30472,0.28655 -0.47316,0.28655 z"
       style="fill:#552200;fill-rule:evenodd;stroke:#000000;stroke-width:0;stroke-linecap:butt;stroke-linejoin:miter;stroke-miterlimit:4;stroke-opacity:1;stroke-dasharray:none" />
    <path
       style="fill:#552200;fill-rule:evenodd;stroke:#000000;stroke-width:0;stroke-linecap:butt;stroke-linejoin:miter;stroke-miterlimit:4;stroke-opacity:1;stroke-dasharray:none"
       d="m 357.88285,399.49108 c -0.16845,0 -0.33095,-0.099 -0.46002,-0.28655 l -27.03579,-39.27666 c -0.16475,-0.23947 -0.21641,-0.57183 -0.17086,-0.87876 l 55.34648,0 c 0.0453,0.30664 -0.0194,0.63958 -0.18401,0.87876 l -27.02264,39.27666 c -0.12907,0.1876 -0.30472,0.28655 -0.47316,0.28655 z"
       id="path2994"
       inkscape:connector-curvature="0" />
    <path
       id="path3009"
       d="m 544.46168,552.14166 c -36.89942,0 -66.80543,-34.26644 -66.80543,-76.54595 0,-6.68895 0.76935,-13.17896 2.17598,-19.36315 7.48442,32.90486 35.5881,69.30464 66.64976,69.30464 31.06181,0 55.15313,-36.39952 62.63739,-69.30464 1.40656,6.18402 2.17598,12.6744 2.17598,19.36315 0,42.27951 -29.93426,76.54595 -66.83368,76.54595 z"
       style="fill:#552200;fill-opacity:1;fill-rule:evenodd;stroke:#000000;stroke-width:0;stroke-linecap:butt;stroke-linejoin:miter;stroke-miterlimit:4;stroke-opacity:1;stroke-dasharray:none"
       inkscape:connector-curvature="0"
       sodipodi:nodetypes="sscscss" />
    <path
       style="fill:#552200;fill-rule:evenodd;stroke:#000000;stroke-width:0;stroke-linecap:butt;stroke-linejoin:miter;stroke-miterlimit:4;stroke-opacity:1;stroke-dasharray:none"
       d="m 546.78138,463.09482 c -0.16845,0 -0.33095,0.099 -0.46002,0.28655 l -27.03579,39.27666 c -0.16475,0.23947 -0.21641,0.57183 -0.17086,0.87876 l 55.34648,0 c 0.0453,-0.30664 -0.0194,-0.63958 -0.18401,-0.87876 l -27.02264,-39.27666 c -0.12907,-0.1876 -0.30472,-0.28655 -0.47316,-0.28655 z"
       id="path3781"
       inkscape:connector-curvature="0" />
    <path
       inkscape:connector-curvature="0"
       style="fill:#552200;fill-opacity:1;fill-rule:evenodd;stroke:#000000;stroke-width:0;stroke-linecap:butt;stroke-linejoin:miter;stroke-miterlimit:4;stroke-opacity:1;stroke-dasharray:none"
       d="m 260.60881,543.05029 c -36.89942,0 -66.80543,-32.82281 -66.80543,-73.3211 0,-6.40715 0.76935,-12.62374 2.17598,-18.54739 7.48442,31.51859 33.56779,54.77372 64.62945,54.77372 31.06181,0 57.17344,-23.25488 64.6577,-54.77372 1.40656,5.92349 2.17598,12.14043 2.17598,18.54739 0,40.49829 -29.93426,73.3211 -66.83368,73.3211 z"
       id="path3783" />
    <path
       inkscape:connector-curvature="0"
       id="path3785"
       d="m 259.89805,454.00345 c -0.16845,0 -0.33095,0.099 -0.46002,0.28655 l -27.03579,39.27666 c -0.16475,0.23947 -0.21641,0.57183 -0.17086,0.87876 l 55.34648,0 c 0.0453,-0.30664 -0.0194,-0.63958 -0.18401,-0.87876 L 260.37121,454.29 c -0.12907,-0.1876 -0.30472,-0.28655 -0.47316,-0.28655 z"
       style="fill:#552200;fill-rule:evenodd;stroke:#000000;stroke-width:0;stroke-linecap:butt;stroke-linejoin:miter;stroke-miterlimit:4;stroke-opacity:1;stroke-dasharray:none" />
    <path
       id="path3787"
       d="m 260.60881,507.75034 c -36.89942,0 -66.80543,32.82281 -66.80543,73.3211 0,6.40715 0.76935,12.62374 2.17598,18.54739 7.48442,-31.51859 33.56779,-54.77372 64.62945,-54.77372 31.06181,0 57.17344,23.25488 64.6577,54.77372 1.40656,-5.92349 2.17598,-12.14043 2.17598,-18.54739 0,-40.49829 -29.93426,-73.3211 -66.83368,-73.3211 z"
       style="fill:#552200;fill-opacity:1;fill-rule:evenodd;stroke:#000000;stroke-width:0;stroke-linecap:butt;stroke-linejoin:miter;stroke-miterlimit:4;stroke-opacity:1;stroke-dasharray:none"
       inkscape:connector-curvature="0" />
    <path
       style="fill:#552200;fill-rule:evenodd;stroke:#000000;stroke-width:0;stroke-linecap:butt;stroke-linejoin:miter;stroke-miterlimit:4;stroke-opacity:1;stroke-dasharray:none"
       d="m 259.89805,596.79718 c -0.16845,0 -0.33095,-0.099 -0.46002,-0.28655 l -27.03579,-39.27666 c -0.16475,-0.23947 -0.21641,-0.57183 -0.17086,-0.87876 l 55.34648,0 c 0.0453,0.30664 -0.0194,0.63958 -0.18401,0.87876 l -27.02264,39.27666 c -0.12907,0.1876 -0.30472,0.28655 -0.47316,0.28655 z"
       id="path3789"
       inkscape:connector-curvature="0" />
    <path
       sodipodi:nodetypes="sscscss"
       inkscape:connector-curvature="0"
       style="fill:#552200;fill-opacity:1;fill-rule:evenodd;stroke:#000000;stroke-width:0;stroke-linecap:butt;stroke-linejoin:miter;stroke-miterlimit:4;stroke-opacity:1;stroke-dasharray:none"
       d="m 544.71437,689.87579 c -36.48103,0 -66.04797,18.18835 -66.04797,35.95608 0,2.81098 0.76063,5.53838 2.1513,8.13725 7.39957,-13.82808 35.18461,-27.35711 65.89408,-27.35711 30.70963,0 54.5278,13.52892 61.9272,27.35711 1.39061,-2.5988 2.15131,-5.32634 2.15131,-8.13725 0,-17.76773 -29.59487,-35.95608 -66.07592,-35.95608 z"
       id="path3791" />
    <path
       id="path3793"
       d="m 544.46168,604.72498 c -36.89942,0 -65.2902,65.36941 -65.2902,122.65573 0,9.06315 8.85057,-14.8358 10.2572,-6.45658 15.81818,-41.04866 25.99165,-90.15164 57.05331,-90.15164 31.06181,0 36.97038,37.39923 51.27317,81.73123 1.40656,-8.37898 12.27751,19.39419 12.27751,10.3313 0,-57.28632 -28.67157,-118.11004 -65.57099,-118.11004 z"
       style="fill:#552200;fill-opacity:1;fill-rule:evenodd;stroke:#000000;stroke-width:0;stroke-linecap:butt;stroke-linejoin:miter;stroke-miterlimit:4;stroke-opacity:1;stroke-dasharray:none"
       inkscape:connector-curvature="0"
       sodipodi:nodetypes="sscscss" />
    <path
       inkscape:connector-curvature="0"
       id="path3795"
       d="m 546.78138,643.2486 c -0.16845,0 -0.33095,0.099 -0.46002,0.28655 l -27.03579,39.27666 c -0.16475,0.23947 -0.21641,0.57183 -0.17086,0.87876 l 55.34648,0 c 0.0453,-0.30664 -0.0194,-0.63958 -0.18401,-0.87876 l -27.02264,-39.27666 c -0.12907,-0.1876 -0.30472,-0.28655 -0.47316,-0.28655 z"
       style="fill:#552200;fill-rule:evenodd;stroke:#000000;stroke-width:0;stroke-linecap:butt;stroke-linejoin:miter;stroke-miterlimit:4;stroke-opacity:1;stroke-dasharray:none" />
    <path
       style="fill:#552200;fill-rule:evenodd;stroke:#000000;stroke-width:0;stroke-linecap:butt;stroke-linejoin:miter;stroke-miterlimit:4;stroke-opacity:1;stroke-dasharray:none"
       d="m 186.19617,678.1473 c 0,-0.16845 -0.099,-0.33095 -0.28655,-0.46002 l -39.27666,-27.03579 c -0.23947,-0.16475 -0.57183,-0.21641 -0.87876,-0.17086 l 0,55.34648 c 0.30664,0.0453 0.63958,-0.0194 0.87876,-0.18401 l 39.27666,-27.02264 c 0.1876,-0.12907 0.28655,-0.30472 0.28655,-0.47316 z"
       id="path3799"
       inkscape:connector-curvature="0" />
    <g
       id="g3807"
       transform="matrix(0,0.79687291,-1,0,851.39732,471.65875)">
      <path
         style="fill:#552200;fill-opacity:1;fill-rule:evenodd;stroke:#000000;stroke-width:0;stroke-linecap:butt;stroke-linejoin:miter;stroke-miterlimit:4;stroke-opacity:1;stroke-dasharray:none"
         d="m 195.96875,650.125 c -1.40663,5.92365 -2.15625,12.1241 -2.15625,18.53125 0,22.27253 9.0644,42.20977 23.34375,55.65625 C 202.8679,737.75913 193.8125,757.71937 193.8125,780 c 0,6.40715 0.74962,12.63885 2.15625,18.5625 7.48442,-31.51859 33.56334,-54.78125 64.625,-54.78125 31.06181,0 57.20324,23.26241 64.6875,54.78125 1.40656,-5.92349 2.15625,-12.15554 2.15625,-18.5625 0,-22.27728 -9.05143,-42.24093 -23.34375,-55.6875 14.28319,-13.44641 23.34375,-33.38718 23.34375,-55.65625 0,-6.40696 -0.74969,-12.60776 -2.15625,-18.53125 -7.48426,31.51884 -33.62569,54.75 -64.6875,54.75 -31.06166,0 -57.14058,-23.23141 -64.625,-54.75 z"
         id="path3797"
         inkscape:connector-curvature="0" />
    </g>
    <path
       inkscape:connector-curvature="0"
       id="path3803"
       d="m 68.968479,677.28477 c 0,-0.16845 0.099,-0.33095 0.28655,-0.46002 l 39.276661,-27.03579 c 0.23947,-0.16475 0.57183,-0.21641 0.87876,-0.17086 l 0,55.34648 c -0.30664,0.0453 -0.63958,-0.0194 -0.87876,-0.18401 L 69.255029,677.75793 c -0.1876,-0.12907 -0.28655,-0.30472 -0.28655,-0.47316 z"
       style="fill:#552200;fill-rule:evenodd;stroke:#000000;stroke-width:0;stroke-linecap:butt;stroke-linejoin:miter;stroke-miterlimit:4;stroke-opacity:1;stroke-dasharray:none" />
    <path
       inkscape:connector-curvature="0"
       id="path3820"
       d="m 357.875,830.47769 c -0.4005,0 -0.78687,0.23527 -1.09375,0.68131 L 292.5,924.54457 c -0.39173,0.56937 -0.51455,1.3596 -0.40625,2.08937 l 67.54911,-35 64.04464,35 c 0.1076,-0.72908 -0.0462,-1.52067 -0.4375,-2.08937 L 359,831.159 c -0.30688,-0.44604 -0.7245,-0.68131 -1.125,-0.68131 z"
       style="fill:#552200;fill-opacity:1;fill-rule:evenodd;stroke:#000000;stroke-width:0;stroke-linecap:butt;stroke-linejoin:miter;stroke-miterlimit:4;stroke-opacity:1;stroke-dasharray:none"
       sodipodi:nodetypes="sccccccss" />
    <path
       style="fill:#552200;fill-rule:evenodd;stroke:#000000;stroke-width:0;stroke-linecap:butt;stroke-linejoin:miter;stroke-miterlimit:4;stroke-opacity:1;stroke-dasharray:none"
       d="m 359.07049,944.45147 c -0.14486,0 -0.28464,-0.0672 -0.39564,-0.1944 l -23.25267,-26.64525 c -0.1417,-0.16247 -0.18612,-0.38794 -0.14694,-0.59616 l 47.60182,0 c 0.0389,0.20802 -0.0166,0.43389 -0.15824,0.59616 l -23.24136,26.64525 c -0.11101,0.12727 -0.26209,0.1944 -0.40697,0.1944 z"
       id="path3822"
       inkscape:connector-curvature="0" />
    <path
       inkscape:connector-curvature="0"
       id="path3826"
       d="m 359.13373,898.65237 c -0.14491,0 -0.28485,0.0291 -0.39609,0.0841 l -23.27965,11.5285 c -0.14198,0.0703 -0.18628,0.16785 -0.14727,0.25794 l 47.65705,0 c 0.039,-0.09 -0.0176,-0.18773 -0.15842,-0.25794 l -23.26832,-11.5285 c -0.11115,-0.0551 -0.26226,-0.0841 -0.40742,-0.0841 z"
       style="fill:#552200;fill-rule:evenodd;stroke:#000000;stroke-width:0;stroke-linecap:butt;stroke-linejoin:miter;stroke-miterlimit:4;stroke-opacity:1;stroke-dasharray:none" />
    <path
       inkscape:connector-curvature="0"
       id="path3011"
       d="m 552.86593,241.76081 c 0,-0.16845 -0.099,-0.33095 -0.28655,-0.46002 L 513.30272,214.265 c -0.23947,-0.16475 -0.57183,-0.21641 -0.87876,-0.17086 l 0,55.34648 c 0.30664,0.0453 0.63958,-0.0194 0.87876,-0.18401 l 39.27666,-27.02264 c 0.1876,-0.12907 0.28655,-0.30472 0.28655,-0.47316 z"
       style="fill:#552200;fill-rule:evenodd;stroke:#000000;stroke-width:0;stroke-linecap:butt;stroke-linejoin:miter;stroke-miterlimit:4;stroke-opacity:1;stroke-dasharray:none" />
    <path
       style="fill:#552200;fill-rule:evenodd;stroke:#000000;stroke-width:0;stroke-linecap:butt;stroke-linejoin:miter;stroke-miterlimit:4;stroke-opacity:1;stroke-dasharray:none"
       d="m 515.45442,275.21867 c 0,-0.16845 0.099,-0.33095 0.28655,-0.46002 l 39.27666,-27.03579 c 0.23947,-0.16475 0.57183,-0.21641 0.87876,-0.17086 l 0,55.34648 c -0.30664,0.0453 -0.63958,-0.0194 -0.87876,-0.18401 l -39.27666,-27.02264 c -0.1876,-0.12907 -0.28655,-0.30472 -0.28655,-0.47316 z"
       id="path3013"
       inkscape:connector-curvature="0" />
    <path
       inkscape:connector-curvature="0"
       id="path3015"
       d="m 602.03305,275.21867 c 0,-0.16845 -0.099,-0.33095 -0.28655,-0.46002 l -39.27666,-27.03579 c -0.23947,-0.16475 -0.57183,-0.21641 -0.87876,-0.17086 l 0,55.34648 c 0.30664,0.0453 0.63958,-0.0194 0.87876,-0.18401 l 39.27666,-27.02264 c 0.1876,-0.12907 0.28655,-0.30472 0.28655,-0.47316 z"
       style="fill:#552200;fill-rule:evenodd;stroke:#000000;stroke-width:0;stroke-linecap:butt;stroke-linejoin:miter;stroke-miterlimit:4;stroke-opacity:1;stroke-dasharray:none" />
    <path
       style="fill:#552200;fill-rule:evenodd;stroke:#000000;stroke-width:0;stroke-linecap:butt;stroke-linejoin:miter;stroke-miterlimit:4;stroke-opacity:1;stroke-dasharray:none"
       d="m 554.88624,308.90313 c 0,-0.16845 -0.099,-0.33095 -0.28655,-0.46002 l -39.27666,-27.03579 c -0.23947,-0.16475 -0.57183,-0.21641 -0.87876,-0.17086 l 0,55.34648 c 0.30664,0.0453 0.63958,-0.0194 0.87876,-0.18401 l 39.27666,-27.02264 c 0.1876,-0.12907 0.28655,-0.30472 0.28655,-0.47316 z"
       id="path3017"
       inkscape:connector-curvature="0" />
    <path
       style="fill:#501616;fill-rule:evenodd;stroke:#000000;stroke-width:0;stroke-linecap:butt;stroke-linejoin:miter;stroke-miterlimit:4;stroke-opacity:1;stroke-dasharray:none"
       d="m 90.306791,202.81919 -18.34381,18.3438 c -0.60261,0.60262 -0.60261,1.5709 0,2.17351 l 63.078029,63.09344 c 0.60261,0.60262 1.58631,0.60262 2.18892,0 l 63.07803,-63.09344 c 0.60261,-0.60261 0.60261,-1.57089 0,-2.17351 l -18.34381,-18.3438 -44.73422,44.74963 c -0.60261,0.60262 -1.58631,0.60262 -2.18892,0 L 90.306791,202.81919 z"
       id="rect2994-1"
       inkscape:connector-curvature="0" />
    <path
       style="fill:#501616;fill-rule:evenodd;stroke:#000000;stroke-width:0;stroke-linecap:butt;stroke-linejoin:miter;stroke-miterlimit:4;stroke-opacity:1;stroke-dasharray:none"
       d="m 115.19955,198.59138 -8.38,8.38 c -0.27529,0.2753 -0.27529,0.71763 0,0.99292 l 28.81594,28.82298 c 0.27529,0.2753 0.72467,0.2753 0.99996,0 l 28.81594,-28.82298 c 0.27529,-0.27529 0.27529,-0.71762 0,-0.99292 l -8.38,-8.38 -20.43594,20.44298 c -0.27529,0.27529 -0.72467,0.27529 -0.99996,0 l -20.43594,-20.44298 z"
       id="rect2994-7"
       inkscape:connector-curvature="0" />
    <path
       id="path3793-0"
       d="m 598.39368,785.16106 c -32.26123,0 -58.5619,31.73661 -58.5619,65.86558 0,5.39948 9.21662,-1.63064 10.44644,3.36137 13.82987,-24.4552 22.72455,-53.70885 49.88182,-53.70885 27.15741,0 33.80183,26.71667 46.30679,53.12795 1.22976,-4.99187 9.81016,2.68299 9.81016,-2.71632 0,-34.12898 -25.62207,-65.92973 -57.88331,-65.92973 z"
       style="fill:#552200;fill-opacity:1;fill-rule:evenodd;stroke:#000000;stroke-width:0;stroke-linecap:butt;stroke-linejoin:miter;stroke-miterlimit:4;stroke-opacity:1;stroke-dasharray:none"
       inkscape:connector-curvature="0"
       sodipodi:nodetypes="sscscss" />
    <path
       inkscape:connector-curvature="0"
       id="path3795-9"
       d="m 599.86531,809.79988 c -0.16845,0 -0.33095,0.099 -0.46002,0.28655 l -27.03579,39.27666 c -0.16475,0.23947 -0.21641,0.57183 -0.17086,0.87876 l 55.34648,0 c 0.0453,-0.30664 -0.0194,-0.63958 -0.18401,-0.87876 l -27.02264,-39.27666 c -0.12907,-0.1876 -0.30472,-0.28655 -0.47316,-0.28655 z"
       style="fill:#552200;fill-rule:evenodd;stroke:#000000;stroke-width:0;stroke-linecap:butt;stroke-linejoin:miter;stroke-miterlimit:4;stroke-opacity:1;stroke-dasharray:none" />
    <path
       sodipodi:type="star"
       style="fill:#800000;fill-rule:evenodd;stroke:#000000;stroke-width:0;stroke-linecap:butt;stroke-linejoin:miter;stroke-opacity:1;stroke-miterlimit:4;stroke-dasharray:none"
       id="path3063"
       sodipodi:sides="5"
       sodipodi:cx="531.01288"
       sodipodi:cy="72.355919"
       sodipodi:r1="87.710495"
       sodipodi:r2="70.959282"
       sodipodi:arg1="1.0471976"
       sodipodi:arg2="1.6755161"
       inkscape:flatsided="true"
       inkscape:rounded="0"
       inkscape:randomized="0"
       d="M 574.86812,148.31544 472.3231,137.53752 450.88536,36.680843 l 89.29577,-51.554931 76.62556,68.993974 z"
       inkscape:transform-center-x="0.25948941"
       inkscape:transform-center-y="-3.9270859"
       transform="matrix(0.5926852,-0.06107321,0.06107321,0.5926852,178.15019,90.886266)" />
  </g>
</svg>
